<svg width="17" height="18" viewBox="0 0 17 18" fill="none" xmlns="http://www.w3.org/2000/svg">
<path id="Vector" d="M8.51565 14.407C8.66698 14.407 8.81491 14.362 8.94074 14.2776C9.06656 14.1933 9.16463 14.0734 9.22255 13.9332C9.28046 13.7929 9.29561 13.6386 9.26609 13.4897C9.23656 13.3408 9.16369 13.2041 9.05668 13.0967C8.94968 12.9894 8.81334 12.9163 8.66492 12.8867C8.5165 12.857 8.36265 12.8722 8.22284 12.9303C8.08303 12.9884 7.96353 13.0868 7.87946 13.213C7.79538 13.3392 7.75051 13.4876 7.75051 13.6394C7.75051 13.843 7.83112 14.0382 7.97461 14.1822C8.11811 14.3261 8.31272 14.407 8.51565 14.407ZM12.3413 14.407C12.4927 14.407 12.6406 14.362 12.7664 14.2776C12.8923 14.1933 12.9903 14.0734 13.0482 13.9332C13.1062 13.7929 13.1213 13.6386 13.0918 13.4897C13.0623 13.3408 12.9894 13.2041 12.8824 13.0967C12.7754 12.9894 12.639 12.9163 12.4906 12.8867C12.3422 12.857 12.1884 12.8722 12.0485 12.9303C11.9087 12.9884 11.7892 13.0868 11.7052 13.213C11.6211 13.3392 11.5762 13.4876 11.5762 13.6394C11.5762 13.843 11.6568 14.0382 11.8003 14.1822C11.9438 14.3261 12.1384 14.407 12.3413 14.407ZM12.3413 11.3368C12.4927 11.3368 12.6406 11.2918 12.7664 11.2075C12.8923 11.1231 12.9903 11.0033 13.0482 10.863C13.1062 10.7228 13.1213 10.5684 13.0918 10.4196C13.0623 10.2707 12.9894 10.1339 12.8824 10.0266C12.7754 9.91922 12.639 9.84612 12.4906 9.81651C12.3422 9.78689 12.1884 9.80209 12.0485 9.86018C11.9087 9.91828 11.7892 10.0167 11.7052 10.1429C11.6211 10.2691 11.5762 10.4175 11.5762 10.5693C11.5762 10.7729 11.6568 10.9681 11.8003 11.112C11.9438 11.256 12.1384 11.3368 12.3413 11.3368ZM8.51565 11.3368C8.66698 11.3368 8.81491 11.2918 8.94074 11.2075C9.06656 11.1231 9.16463 11.0033 9.22255 10.863C9.28046 10.7228 9.29561 10.5684 9.26609 10.4196C9.23656 10.2707 9.16369 10.1339 9.05668 10.0266C8.94968 9.91922 8.81334 9.84612 8.66492 9.81651C8.5165 9.78689 8.36265 9.80209 8.22284 9.86018C8.08303 9.91828 7.96353 10.0167 7.87946 10.1429C7.79538 10.2691 7.75051 10.4175 7.75051 10.5693C7.75051 10.7729 7.83112 10.9681 7.97461 11.112C8.11811 11.256 8.31272 11.3368 8.51565 11.3368ZM13.8716 2.12638H13.1065V1.35885C13.1065 1.15528 13.0259 0.960056 12.8824 0.816115C12.7389 0.672174 12.5443 0.591309 12.3413 0.591309C12.1384 0.591309 11.9438 0.672174 11.8003 0.816115C11.6568 0.960056 11.5762 1.15528 11.5762 1.35885V2.12638H5.45509V1.35885C5.45509 1.15528 5.37448 0.960056 5.23099 0.816115C5.0875 0.672174 4.89288 0.591309 4.68995 0.591309C4.48703 0.591309 4.29241 0.672174 4.14892 0.816115C4.00543 0.960056 3.92481 1.15528 3.92481 1.35885V2.12638H3.15968C2.55089 2.12638 1.96704 2.36898 1.53657 2.8008C1.1061 3.23263 0.864258 3.81831 0.864258 4.429V15.1745C0.864258 15.7852 1.1061 16.3709 1.53657 16.8027C1.96704 17.2345 2.55089 17.4771 3.15968 17.4771H13.8716C14.4804 17.4771 15.0643 17.2345 15.4947 16.8027C15.9252 16.3709 16.167 15.7852 16.167 15.1745V4.429C16.167 3.81831 15.9252 3.23263 15.4947 2.8008C15.0643 2.36898 14.4804 2.12638 13.8716 2.12638ZM14.6368 15.1745C14.6368 15.3781 14.5562 15.5733 14.4127 15.7173C14.2692 15.8612 14.0746 15.9421 13.8716 15.9421H3.15968C2.95675 15.9421 2.76213 15.8612 2.61864 15.7173C2.47515 15.5733 2.39454 15.3781 2.39454 15.1745V8.26668H14.6368V15.1745ZM14.6368 6.73161H2.39454V4.429C2.39454 4.22543 2.47515 4.03021 2.61864 3.88627C2.76213 3.74232 2.95675 3.66146 3.15968 3.66146H3.92481V4.429C3.92481 4.63256 4.00543 4.82779 4.14892 4.97173C4.29241 5.11567 4.48703 5.19653 4.68995 5.19653C4.89288 5.19653 5.0875 5.11567 5.23099 4.97173C5.37448 4.82779 5.45509 4.63256 5.45509 4.429V3.66146H11.5762V4.429C11.5762 4.63256 11.6568 4.82779 11.8003 4.97173C11.9438 5.11567 12.1384 5.19653 12.3413 5.19653C12.5443 5.19653 12.7389 5.11567 12.8824 4.97173C13.0259 4.82779 13.1065 4.63256 13.1065 4.429V3.66146H13.8716C14.0746 3.66146 14.2692 3.74232 14.4127 3.88627C14.5562 4.03021 14.6368 4.22543 14.6368 4.429V6.73161ZM4.68995 11.3368C4.84128 11.3368 4.98922 11.2918 5.11504 11.2075C5.24087 11.1231 5.33894 11.0033 5.39685 10.863C5.45476 10.7228 5.46991 10.5684 5.44039 10.4196C5.41087 10.2707 5.338 10.1339 5.23099 10.0266C5.12398 9.91922 4.98765 9.84612 4.83922 9.81651C4.6908 9.78689 4.53696 9.80209 4.39715 9.86018C4.25734 9.91828 4.13784 10.0167 4.05376 10.1429C3.96969 10.2691 3.92481 10.4175 3.92481 10.5693C3.92481 10.7729 4.00543 10.9681 4.14892 11.112C4.29241 11.256 4.48703 11.3368 4.68995 11.3368ZM4.68995 14.407C4.84128 14.407 4.98922 14.362 5.11504 14.2776C5.24087 14.1933 5.33894 14.0734 5.39685 13.9332C5.45476 13.7929 5.46991 13.6386 5.44039 13.4897C5.41087 13.3408 5.338 13.2041 5.23099 13.0967C5.12398 12.9894 4.98765 12.9163 4.83922 12.8867C4.6908 12.857 4.53696 12.8722 4.39715 12.9303C4.25734 12.9884 4.13784 13.0868 4.05376 13.213C3.96969 13.3392 3.92481 13.4876 3.92481 13.6394C3.92481 13.843 4.00543 14.0382 4.14892 14.1822C4.29241 14.3261 4.48703 14.407 4.68995 14.407Z" fill="#0E3A8E"/>
</svg>
