<svg width="18" height="17" viewBox="0 0 18 17" fill="none" xmlns="http://www.w3.org/2000/svg">
<path id="Vector (Stroke)" fill-rule="evenodd" clip-rule="evenodd" d="M9.30717 2.48659C5.57686 2.48659 2.55284 5.36661 2.55284 8.91929C2.55284 12.472 5.57686 15.352 9.30717 15.352C13.0375 15.352 16.0615 12.472 16.0615 8.91929C16.0615 5.36661 13.0375 2.48659 9.30717 2.48659ZM0.864258 8.91929C0.864258 4.47844 4.64428 0.878418 9.30717 0.878418C13.9701 0.878418 17.7501 4.47844 17.7501 8.91929C17.7501 13.3601 13.9701 16.9602 9.30717 16.9602C4.64428 16.9602 0.864258 13.3601 0.864258 8.91929ZM9.30717 4.09477C9.77346 4.09477 10.1515 4.45477 10.1515 4.89885V8.1152H13.5286C13.9949 8.1152 14.3729 8.4752 14.3729 8.91929C14.3729 9.36337 13.9949 9.72338 13.5286 9.72338H9.30717C8.84088 9.72338 8.46288 9.36337 8.46288 8.91929V4.89885C8.46288 4.45477 8.84088 4.09477 9.30717 4.09477Z" fill="#0E3A8E"/>
</svg>
