<svg width="16" height="18" viewBox="0 0 16 18" fill="none" xmlns="http://www.w3.org/2000/svg">
<path id="Icon (Stroke)" fill-rule="evenodd" clip-rule="evenodd" d="M8.10104 1.89689C4.99245 1.89689 2.47243 4.30236 2.47243 7.26965C2.47243 7.96296 2.72484 8.84849 3.18174 9.82697C3.63299 10.7933 4.25698 11.794 4.93573 12.7002C5.61546 13.6077 6.33397 14.399 6.96325 14.9542C7.27889 15.2327 7.5558 15.4372 7.78039 15.5675C7.97697 15.6814 8.07806 15.7059 8.09969 15.7111L8.10104 15.7115L8.1024 15.7111C8.12403 15.7059 8.22511 15.6814 8.42169 15.5675C8.64629 15.4372 8.92319 15.2327 9.23883 14.9542C9.86812 14.399 10.5866 13.6077 11.2663 12.7002C11.9451 11.794 12.5691 10.7933 13.0203 9.82697C13.4772 8.84849 13.7297 7.96296 13.7297 7.26965C13.7297 4.30236 11.2096 1.89689 8.10104 1.89689ZM0.864258 7.26965C0.864258 3.45456 4.10428 0.361816 8.10104 0.361816C12.0978 0.361816 15.3378 3.45456 15.3378 7.26965C15.3378 8.27195 14.9872 9.38552 14.4892 10.4519C13.9856 11.5304 13.303 12.6205 12.5746 13.593C11.8471 14.5642 11.058 15.4396 10.3304 16.0815C9.96756 16.4016 9.60371 16.6782 9.25664 16.8794C8.93154 17.0679 8.52532 17.2476 8.10104 17.2476C7.67677 17.2476 7.27055 17.0679 6.94544 16.8794C6.59838 16.6782 6.23453 16.4016 5.87172 16.0815C5.14411 15.4396 4.35495 14.5642 3.62752 13.593C2.89913 12.6205 2.21648 11.5304 1.71287 10.4519C1.21491 9.38552 0.864258 8.27195 0.864258 7.26965ZM8.10104 4.96704C6.76879 4.96704 5.68878 5.99796 5.68878 7.26965C5.68878 8.54135 6.76879 9.57227 8.10104 9.57227C9.4333 9.57227 10.5133 8.54135 10.5133 7.26965C10.5133 5.99796 9.4333 4.96704 8.10104 4.96704ZM4.08061 7.26965C4.08061 5.15016 5.88062 3.43197 8.10104 3.43197C10.3215 3.43197 12.1215 5.15016 12.1215 7.26965C12.1215 9.38915 10.3215 11.1073 8.10104 11.1073C5.88062 11.1073 4.08061 9.38915 4.08061 7.26965Z" fill="#0E3A8E"/>
</svg>
